<?xml version="1.0" standalone="no"?>
<!DOCTYPE svg PUBLIC "-//W3C//DTD SVG 20010904//EN"
 "http://www.w3.org/TR/2001/REC-SVG-20010904/DTD/svg10.dtd">
<svg version="1.0" xmlns="http://www.w3.org/2000/svg"
 width="827.000000pt" height="827.000000pt" viewBox="0 0 827.000000 827.000000"
 preserveAspectRatio="xMidYMid meet">
<metadata>
Created by potrace 1.14, written by Peter Selinger 2001-2017
</metadata>
<g transform="translate(0.000000,827.000000) scale(0.100000,-0.100000)"
fill="#000000" stroke="none">
<path d="M4090 4607 l0 -1243 -286 -453 c-157 -249 -283 -455 -279 -459 4 -4
351 -8 771 -10 l764 -3 0 1274 0 1273 296 420 c163 230 301 425 306 432 8 9
-149 12 -781 12 l-791 0 0 -1243z"/>
<path d="M5657 5418 l-326 -433 -1 -1269 0 -1268 102 93 c56 52 141 130 188
174 199 186 334 311 354 328 11 10 48 44 81 75 154 144 208 195 319 297 65 61
130 121 145 134 27 24 70 64 206 191 45 41 114 106 155 144 41 38 100 92 130
121 30 28 186 172 345 319 160 148 315 292 345 320 182 170 319 296 343 316
l27 24 0 433 0 433 -1043 0 -1043 0 -327 -432z m1253 -474 c0 -6 -9 -15 -220
-214 -85 -80 -195 -184 -245 -231 -49 -47 -116 -109 -147 -139 l-58 -53 0 236
0 235 88 86 87 86 248 0 c136 0 247 -3 247 -6z"/>
<path d="M2111 5637 c-73 -111 -265 -402 -426 -647 -161 -245 -390 -591 -508
-770 -671 -1016 -1167 -1772 -1167 -1776 0 -2 722 -4 1604 -4 l1603 0 26 38
c71 105 508 738 558 808 l57 82 -164 253 c-91 140 -224 344 -295 454 -281 432
-359 551 -738 1135 -217 333 -399 611 -405 617 -9 10 -43 -35 -145 -190z m335
-1909 c101 -153 184 -283 184 -288 0 -6 -143 -10 -381 -10 -313 0 -380 2 -376
13 16 41 371 576 379 571 6 -4 93 -132 194 -286z"/>
<path d="M7505 4012 c-39 -37 -104 -98 -145 -137 -42 -38 -111 -104 -155 -145
-45 -41 -139 -129 -210 -195 -71 -66 -168 -158 -217 -205 l-88 -85 790 -398
c434 -218 790 -395 790 -393 0 2 -151 365 -335 806 -184 441 -335 806 -335
811 0 22 -30 4 -95 -59z"/>
</g>
</svg>
